inDegrees=yes
name=ik_MT_2026-06-18_12h51_01210270-000-000_orientations
DataType=double
version=3
OpenSimVersion=4.5
endheader
time	pelvis_tilt	pelvis_list	pelvis_rotation	pelvis_tx	pelvis_ty	pelvis_tz	hip_flexion_r	hip_adduction_r	hip_rotation_r	knee_angle_r	knee_angle_r_beta	ankle_angle_r	subtalar_angle_r	mtp_angle_r	hip_flexion_l	hip_adduction_l	hip_rotation_l	knee_angle_l	knee_angle_l_beta	ankle_angle_l	subtalar_angle_l	mtp_angle_l	lumbar_extension	lumbar_bending	lumbar_rotation	arm_flex_r	arm_add_r	arm_rot_r	elbow_flex_r	pro_sup_r	wrist_flex_r	wrist_dev_r	arm_flex_l	arm_add_l	arm_rot_l	elbow_flex_l	pro_sup_l	wrist_flex_l	wrist_dev_l
42.85	4.551112985264057	3.390212654921273	-275.0975273018753	0	0.9399999999999999	0	3.588370599700915	5.742457654118867	-2.088084020507541	0.1799968987131804	0.003141538525923743	-2.720254608119531	0	0	18.34732686217683	-8.807055655641411	1.93148918489652	62.12430953741851	1.084273746956068	-17.45785088799886	0	0	-2.825655146257136	6.058949146157687	5.025719355628178	0	-14.99999509434019	0	75.00017584607882	45.00000025534055	0	0	0	-14.99999509434019	0	75.00017584607882	45.00000025534055	0	0
42.875	4.215115430857718	3.153526412788026	-275.4371241530745	0	0.9399999999999999	0	2.52692410104619	5.431077723106307	-1.697176416448264	0.2027664243108041	0.003538941716719406	-1.970970042155068	0	0	21.57159069396174	-8.534308818512871	2.635661795358381	60.73580051037727	1.060039692740536	-13.42739841710938	0	0	-3.18174881160204	5.660830226842077	5.346918653039079	0	-14.99999512083868	0	75.00017584607944	45.00000025534055	0	0	0	-14.99999512083868	0	75.00017584607944	45.00000025534055	0	0
42.9	3.922227658490936	3.519007056594219	-276.005948445779	0	0.9399999999999999	0	0.953229110475027	5.047234444404304	-1.210687950090455	0.261192716815117	0.004558672890652949	-1.236453176320635	0	0	23.80134698261159	-8.368269722458969	3.045336667146794	58.07640489214847	1.013624483089333	-9.680546551118029	0	0	-3.802693657367174	5.189970765022507	5.739528374216228	0	-14.99999514788307	0	75.00017584608004	45.00000025534055	0	0	0	-14.99999514788307	0	75.00017584608004	45.00000025534055	0	0
42.925	3.621801977665317	3.772968635597441	-276.6828013634822	0	0.9399999999999999	0	-0.4925546564873374	4.634715755103828	-0.8284401577499704	0.3601050195287498	0.006285018243735164	-0.4568729499687749	0	0	25.80869206954514	-8.441379574944529	3.139257204091222	54.22943889180514	0.9464822601710646	-6.550571862805048	0	0	-4.294087310962779	4.746517596036411	6.32636558528106	0	-14.99999517616093	0	75.00017584608074	45.00000025534055	0	0	0	-14.99999517616093	0	75.00017584608074	45.00000025534055	0	0
42.95	3.374630905105383	3.976238837849487	-277.3452982331412	0	0.9399999999999999	0	-1.800359143675969	4.257475240640455	-0.5968488257085884	0.5916281328636808	0.0103258588658977	0.4397951499482018	0	0	27.48435460646485	-8.836866741301129	2.72875472422567	49.19223258493637	0.8585664250139808	-5.09867858404748	0	0	-4.845116167112084	4.374459600832792	6.89119864207234	0	-14.99999520633122	0	75.00017584608143	45.00000025534055	0	0	0	-14.99999520633122	0	75.00017584608143	45.00000025534055	0	0
42.975	3.257370100880471	4.322084797548113	-277.963616721966	0	0.9399999999999999	0	-3.182382289546971	3.965890464490736	-0.3717634759678138	0.9497023055986094	0.01657543214647711	1.370058928329918	0	0	28.3438863243228	-9.581890886596922	1.822870326115988	43.2400576064457	0.754681373984496	-4.668764261889788	0	0	-5.586220898242431	4.049180319218285	7.265304507448331	0	-14.99999523870187	0	75.0001758460822	45.00000025534055	0	0	0	-14.99999523870187	0	75.0001758460822	45.00000025534055	0	0
43	3.257532876448438	4.576186016168513	-278.5661708385446	0	0.9399999999999999	0	-4.549472174987848	3.785732615791063	0.003642185175590155	1.26347539542964	0.02205180566818454	2.392439200685567	0	0	28.2257863584081	-10.70210393343836	-0.0443375081611433	36.04118058284218	0.629037267476445	-5.199800987544583	0	0	-6.281888757181495	3.796042391197453	7.462979098153565	0	-14.99999526726078	0	75.00017584608288	45.00000025534055	0	0	0	-14.99999526726078	0	75.00017584608288	45.00000025534055	0	0
43.025	3.384914413796861	4.743754435383803	-279.1963013564447	0	0.9399999999999999	0	-5.970648277492367	3.763656676090474	0.4970819486168193	1.405298004255715	0.02452707714596751	3.406062119712534	0	0	27.40919012338339	-10.96347229173771	-1.884423224660394	27.69199004833014	0.4833164027728646	-6.286783745506888	0	0	-6.803449966001379	3.562804493487837	7.648365157032564	0	-14.99999528911449	0	75.00017584608341	45.00000025534055	0	0	0	-14.99999528911449	0	75.00017584608341	45.00000025534055	0	0
43.05	3.650427556102108	4.819749594496983	-279.9431930803347	0	0.9399999999999999	0	-7.371207817352502	3.839980533022946	0.9273348346452225	1.602046250813555	0.02796098184592741	4.48855034973804	0	0	26.44961101634759	-10.29845966076375	-2.699546869400277	19.32318596020344	0.3372532169806919	-6.777556197180734	0	0	-7.133560808448302	3.450487151609438	7.864491345988601	0	-14.9999953024019	0	75.00017584608376	45.00000025534055	0	0	0	-14.9999953024019	0	75.00017584608376	45.00000025534055	0	0
43.075	3.949768819446212	4.757837314422109	-280.7813322707408	0	0.9399999999999999	0	-8.562175460856574	3.924709957256102	1.31606019777599	2.060798355685603	0.03596771652639898	5.703779137345073	0	0	25.79412263104457	-9.712649244724552	-1.992033221554822	11.93108743986669	0.2082367591690146	-7.446236650294712	0	0	-7.460331744409816	3.381915891055792	8.152660182543121	0	-14.99999530374533	0	75.00017584608381	45.00000025534055	0	0	0	-14.99999530374533	0	75.00017584608381	45.00000025534055	0	0
43.1	4.215791382388757	4.615270428614565	-281.5635226739435	0	0.9399999999999999	0	-9.564781796388681	3.934812034722156	1.660793242580058	2.737216149636636	0.04777343414992109	7.080808156465252	0	0	25.47135640390034	-9.332775329688875	0.2830733299532844	6.136484008875684	0.1071018504508616	-7.23694338257695	0	0	-7.792605165935655	3.376706429405747	8.356241048642895	0	-14.99999530677819	0	75.00017584608391	45.00000025534055	0	0	0	-14.99999530677819	0	75.00017584608391	45.00000025534055	0	0
43.125	4.402379601870538	4.751056869828738	-282.2573346167807	0	0.9399999999999999	0	-10.74590887424978	3.819363546656164	1.92870863723004	3.729518235390693	0.06509237272073651	8.673547502007786	0	0	24.96916501630258	-9.347750071004045	3.161644975913927	2.187145816775661	0.03817289572395591	-6.762312502159271	0	0	-8.197089134812558	3.165930510913513	8.564453454869561	0	-14.99999530758944	0	75.00017584608399	45.00000025534055	0	0	0	-14.99999530758944	0	75.00017584608399	45.00000025534055	0	0
